<?xml version="1.0" encoding="UTF-8" standalone="no"?>
<!-- Created with Inkscape (http://www.inkscape.org/) -->

<svg
   xmlns:dc="http://purl.org/dc/elements/1.1/"
   xmlns:cc="http://creativecommons.org/ns#"
   xmlns:rdf="http://www.w3.org/1999/02/22-rdf-syntax-ns#"
   xmlns:svg="http://www.w3.org/2000/svg"
   xmlns="http://www.w3.org/2000/svg"
   xmlns:sodipodi="http://sodipodi.sourceforge.net/DTD/sodipodi-0.dtd"
   xmlns:inkscape="http://www.inkscape.org/namespaces/inkscape"
   width="601"
   height="751"
   id="svg2"
   version="1.1"
   inkscape:version="0.48.2 r9819"
   sodipodi:docname="MUTCD_R2-5a.svg">
  <defs
     id="defs4" />
  <sodipodi:namedview
     id="base"
     pagecolor="#ffffff"
     bordercolor="#666666"
     borderopacity="1.0"
     inkscape:pageopacity="0.0"
     inkscape:pageshadow="2"
     inkscape:zoom="0.35"
     inkscape:cx="631.12668"
     inkscape:cy="306.91907"
     inkscape:document-units="px"
     inkscape:current-layer="layer1"
     showgrid="false"
     inkscape:window-width="1280"
     inkscape:window-height="962"
     inkscape:window-x="-8"
     inkscape:window-y="-8"
     inkscape:window-maximized="1"
     fit-margin-top="0"
     fit-margin-left="0"
     fit-margin-right="0"
     fit-margin-bottom="0" />
  <metadata
     id="metadata7">
    <rdf:RDF>
      <cc:Work
         rdf:about="">
        <dc:format>image/svg+xml</dc:format>
        <dc:type
           rdf:resource="http://purl.org/dc/dcmitype/StillImage" />
        <dc:title></dc:title>
      </cc:Work>
    </rdf:RDF>
  </metadata>
  <g
     inkscape:label="Layer 1"
     inkscape:groupmode="layer"
     id="layer1"
     transform="translate(-68.0625,-88.28125)">
    <path
       inkscape:connector-curvature="0"
       style="color:#000000;fill:#ffffff;fill-opacity:1;fill-rule:nonzero;stroke:#000000;stroke-width:1;stroke-linecap:butt;stroke-linejoin:miter;stroke-miterlimit:4;stroke-opacity:1;stroke-dashoffset:0;marker:none;visibility:visible;display:inline;overflow:visible"
       d="m 106.07142,88.79075 525.00001,0 c 20.775,0 37.5,16.725 37.5,37.5 l 0,675 c 0,20.775 -16.725,37.5 -37.5,37.5 l -525.00001,0 c -20.775001,0 -37.500001,-16.725 -37.500001,-37.5 l 0,-675 c 0,-20.775 16.725,-37.5 37.500001,-37.5 z"
       id="rect1872" />
    <path
       inkscape:connector-curvature="0"
       style="color:#000000;fill:#000000;fill-opacity:1;fill-rule:nonzero;stroke:none;stroke-width:0.8735441;marker:none;visibility:visible;display:inline;overflow:visible"
       d="m 106.07142,98.16575 525.00001,0 c 15.5812,0 28.125,12.54375 28.125,28.125 l 0,675 c 0,15.58125 -12.5438,28.125 -28.125,28.125 l -525.00001,0 c -15.581251,0 -28.125001,-12.54375 -28.125001,-28.125 l 0,-675 c 0,-15.58125 12.54375,-28.125 28.125001,-28.125 z"
       id="rect2760" />
    <path
       inkscape:connector-curvature="0"
       style="color:#000000;fill:#ffffff;fill-opacity:1;fill-rule:nonzero;stroke:none;stroke-width:0.8735441;marker:none;visibility:visible;display:inline;overflow:visible"
       d="m 106.07142,113.79075 525.00001,0 c 6.925,0 12.5,5.575 12.5,12.5 l 0,675 c 0,6.925 -5.575,12.5 -12.5,12.5 l -525.00001,0 c -6.925001,0 -12.500001,-5.575 -12.500001,-12.5 l 0,-675 c 0,-6.925 5.575,-12.5 12.500001,-12.5 z"
       id="rect2762" />
    <g
       id="g3562">
      <path
         d="m 180.34973,207.13666 c -0.0192,-11.49091 -2.46215,-20.12161 -7.32882,-25.89212 -4.8668,-5.77028 -12.04246,-8.65739 -21.527,-8.66134 l -24.26094,0 0,123.14266 15.62258,0 0,-57.52784 7.168,0 13.96842,57.52784 15.99017,0 -12.49806,-61.38753 c 4.47611,-2.68411 7.74613,-6.18388 9.81005,-10.4993 2.0638,-4.31528 3.08233,-9.88273 3.0556,-16.70237 z m -15.99017,-0.36759 c 0.0727,5.70922 -0.71608,9.72973 -2.36635,12.06155 -1.65038,2.33197 -4.59875,3.45772 -8.84514,3.37724 l -10.29252,0 0,-33.63449 7.71939,0 c 5.31852,-0.11477 8.97144,1.1718 10.95877,3.85969 1.98723,2.68811 2.92918,7.46677 2.82585,14.33601 z"
         id="path3511"
         inkscape:connector-curvature="0"
         style="font-size:183.79737854px;font-style:normal;font-variant:normal;font-weight:normal;font-stretch:normal;text-align:center;line-height:125%;letter-spacing:0px;word-spacing:0px;text-anchor:middle;fill:#000000;fill-opacity:1;stroke:none;font-family:Roadgeek 2005 Series B;-inkscape-font-specification:Roadgeek 2005 Series B" />
      <path
         d="m 246.7983,295.72586 0,-15.99017 -31.42894,0 0,-43.19182 19.84986,0 0,-16.35776 -19.84986,0 0,-31.61274 29.77479,0 0,-15.99017 -45.39737,0 0,123.14266 z"
         id="path3513"
         inkscape:connector-curvature="0"
         style="font-size:183.79737854px;font-style:normal;font-variant:normal;font-weight:normal;font-stretch:normal;text-align:center;line-height:125%;letter-spacing:0px;word-spacing:0px;text-anchor:middle;fill:#000000;fill-opacity:1;stroke:none;font-family:Roadgeek 2005 Series B;-inkscape-font-specification:Roadgeek 2005 Series B" />
      <path
         d="m 319.2747,233.97074 c -0.004,-5.28022 -0.22598,-10.61792 -0.66625,-16.01315 -0.44042,-5.39507 -1.07604,-10.59493 -1.90688,-15.5996 -0.48635,-3.94384 -1.30577,-7.7729 -2.45826,-11.48719 -1.15261,-3.71408 -2.47746,-6.80796 -3.97456,-9.28164 -1.92225,-3.02867 -4.41879,-5.28782 -7.48965,-6.77744 -3.07096,-1.48939 -6.76217,-2.23223 -11.07365,-2.22852 l -25.54751,0 0,123.14266 25.54751,0 c 3.43845,-0.0115 6.57828,-0.5399 9.41949,-1.58523 2.84112,-1.04533 5.15387,-2.53867 6.93827,-4.48 3.6835,-4.13538 6.47105,-10.8439 8.36267,-20.12556 1.89149,-9.28161 2.8411,-21.13638 2.84882,-35.56433 z m -15.99016,3.85969 c -0.0307,5.68238 -0.19916,11.31876 -0.50544,16.90914 -0.30638,5.59047 -0.56675,9.57269 -0.78113,11.94668 -0.80798,4.56426 -2.04094,7.88789 -3.69888,9.97088 -1.65803,2.08302 -3.8559,3.10921 -6.59364,3.07856 l -9.92493,0 0,-91.16232 9.92493,0 c 3.16276,-0.10328 5.52146,1.16031 7.07611,3.79077 1.55455,2.63067 2.62669,7.24852 3.21641,13.85355 0.21438,4.53369 0.47475,9.75653 0.78113,15.66852 0.30627,5.91215 0.47475,11.22688 0.50544,15.94422 z"
         id="path3515"
         inkscape:connector-curvature="0"
         style="font-size:183.79737854px;font-style:normal;font-variant:normal;font-weight:normal;font-stretch:normal;text-align:center;line-height:125%;letter-spacing:0px;word-spacing:0px;text-anchor:middle;fill:#000000;fill-opacity:1;stroke:none;font-family:Roadgeek 2005 Series B;-inkscape-font-specification:Roadgeek 2005 Series B" />
      <path
         d="m 395.3783,265.39968 0,-92.81648 -15.62258,0 0,95.02202 c -0.0192,4.61788 -0.94583,8.15593 -2.7799,10.61417 -1.83417,2.45827 -4.46091,3.69889 -7.88021,3.72184 -3.6836,-0.023 -6.47115,-1.26357 -8.36268,-3.72185 -1.89159,-2.45823 -2.84119,-5.99628 -2.84882,-10.61416 l 0,-95.02202 -15.62257,0 0,92.81648 c 0.0115,3.62615 0.21824,6.66642 0.6203,9.12083 0.40204,2.45445 0.93045,4.6217 1.58524,6.50175 2.08299,5.60959 5.13092,9.82921 9.1438,12.65888 4.01283,2.82968 9.1744,4.24643 15.48473,4.25026 5.29937,0.0306 9.77171,-0.99555 13.41703,-3.07857 3.64522,-2.083 6.6472,-5.40663 9.00596,-9.97088 1.2865,-2.36252 2.25142,-5.1271 2.89477,-8.29375 0.64322,-3.16661 0.96486,-6.89611 0.96493,-11.18852 z"
         id="path3517"
         inkscape:connector-curvature="0"
         style="font-size:183.79737854px;font-style:normal;font-variant:normal;font-weight:normal;font-stretch:normal;text-align:center;line-height:125%;letter-spacing:0px;word-spacing:0px;text-anchor:middle;fill:#000000;fill-opacity:1;stroke:none;font-family:Roadgeek 2005 Series B;-inkscape-font-specification:Roadgeek 2005 Series B" />
      <path
         d="m 471.57097,266.68625 -15.99017,0 c 0.0114,5.37985 -0.65481,9.27783 -1.99877,11.69395 -1.34404,2.41615 -3.43471,3.60316 -6.272,3.56103 -2.55019,-0.0153 -4.61788,-1.08743 -6.20309,-3.21641 -1.58526,-2.12894 -2.82588,-5.22282 -3.72184,-9.28165 -1.07217,-4.96626 -1.77672,-9.96701 -2.11365,-15.00227 -0.33698,-5.03517 -0.49014,-11.73602 -0.45948,-20.10257 -0.0307,-8.01416 0.1225,-14.73033 0.45948,-20.14853 0.33693,-5.41804 1.04148,-10.526 2.11365,-15.32391 0.88448,-4.03573 2.14807,-7.03771 3.79077,-9.00596 1.64263,-1.96803 3.87115,-2.94827 6.68554,-2.94072 2.14807,1.1e-4 3.91709,0.64339 5.30708,1.92985 1.38991,1.28667 2.19401,3.21651 2.41231,5.78954 l 15.99017,0 c -0.71227,-7.58144 -3.1935,-13.41692 -7.4437,-17.50648 -4.25031,-4.08931 -9.85606,-6.157 -16.81724,-6.20307 -7.28291,-0.0879 -12.9346,1.92614 -16.9551,6.04226 -4.02053,4.11636 -6.8234,10.86316 -8.40862,20.24042 -0.9343,5.02766 -1.6848,11.00865 -2.25149,17.943 -0.56671,6.9345 -0.85772,13.32903 -0.87302,19.1836 -0.004,10.00156 0.41736,19.03814 1.26359,27.10976 0.84621,8.07169 2.14043,14.71893 3.88267,19.94176 1.91834,5.67468 4.88203,9.85601 8.89108,12.54401 4.009,2.688 9.13228,4.02051 15.36986,3.99754 5.51381,-0.0498 10.20057,-1.37463 14.06032,-3.97457 3.85963,-2.59993 6.34086,-6.17627 7.4437,-10.72903 0.7198,-2.02173 1.20992,-4.13537 1.47036,-6.34093 0.26031,-2.20552 0.38284,-5.60573 0.36759,-10.20062 z"
         id="path3519"
         inkscape:connector-curvature="0"
         style="font-size:183.79737854px;font-style:normal;font-variant:normal;font-weight:normal;font-stretch:normal;text-align:center;line-height:125%;letter-spacing:0px;word-spacing:0px;text-anchor:middle;fill:#000000;fill-opacity:1;stroke:none;font-family:Roadgeek 2005 Series B;-inkscape-font-specification:Roadgeek 2005 Series B" />
      <path
         d="m 541.87925,295.72586 0,-15.99017 -31.42894,0 0,-43.19182 19.84986,0 0,-16.35776 -19.84986,0 0,-31.61274 29.77479,0 0,-15.99017 -45.39737,0 0,123.14266 z"
         id="path3521"
         inkscape:connector-curvature="0"
         style="font-size:183.79737854px;font-style:normal;font-variant:normal;font-weight:normal;font-stretch:normal;text-align:center;line-height:125%;letter-spacing:0px;word-spacing:0px;text-anchor:middle;fill:#000000;fill-opacity:1;stroke:none;font-family:Roadgeek 2005 Series B;-inkscape-font-specification:Roadgeek 2005 Series B" />
      <path
         d="m 614.35565,233.97074 c -0.004,-5.28022 -0.22598,-10.61792 -0.66626,-16.01315 -0.44041,-5.39507 -1.07603,-10.59493 -1.90687,-15.5996 -0.48636,-3.94384 -1.30578,-7.7729 -2.45826,-11.48719 -1.15261,-3.71408 -2.47746,-6.80796 -3.97456,-9.28164 -1.92225,-3.02867 -4.41879,-5.28782 -7.48965,-6.77744 -3.07096,-1.48939 -6.76217,-2.23223 -11.07365,-2.22852 l -25.54751,0 0,123.14266 25.54751,0 c 3.43845,-0.0115 6.57828,-0.5399 9.41949,-1.58523 2.84112,-1.04533 5.15387,-2.53867 6.93827,-4.48 3.68349,-4.13538 6.47105,-10.8439 8.36267,-20.12556 1.89149,-9.28161 2.84109,-21.13638 2.84882,-35.56433 z m -15.99016,3.85969 c -0.0307,5.68238 -0.19916,11.31876 -0.50544,16.90914 -0.30638,5.59047 -0.56675,9.57269 -0.78113,11.94668 -0.80798,4.56426 -2.04094,7.88789 -3.69888,9.97088 -1.65803,2.08302 -3.85591,3.10921 -6.59364,3.07856 l -9.92493,0 0,-91.16232 9.92493,0 c 3.16276,-0.10328 5.52146,1.16031 7.0761,3.79077 1.55456,2.63067 2.62669,7.24852 3.21642,13.85355 0.21438,4.53369 0.47475,9.75653 0.78113,15.66852 0.30627,5.91215 0.47475,11.22688 0.50544,15.94422 z"
         id="path3523"
         inkscape:connector-curvature="0"
         style="font-size:183.79737854px;font-style:normal;font-variant:normal;font-weight:normal;font-stretch:normal;text-align:center;line-height:125%;letter-spacing:0px;word-spacing:0px;text-anchor:middle;fill:#000000;fill-opacity:1;stroke:none;font-family:Roadgeek 2005 Series B;-inkscape-font-specification:Roadgeek 2005 Series B" />
    </g>
    <g
       id="g3571">
      <path
         d="m 255.92214,499.1899 c -0.0345,-4.41488 -0.60888,-9.0021 -1.72308,-13.76166 -1.11432,-4.75948 -2.5617,-9.11694 -4.34216,-13.07241 -1.66186,-3.51503 -3.71424,-6.91524 -6.15713,-10.20063 -2.44299,-3.28527 -6.8847,-8.52342 -13.32514,-15.71447 -3.17432,-3.40396 -5.41815,-6.38297 -6.73149,-8.93704 -1.3134,-2.55389 -1.94902,-5.21125 -1.90687,-7.9721 0.0191,-4.17741 0.85385,-7.44743 2.50421,-9.81007 1.6503,-2.36242 4.00134,-3.56474 7.05313,-3.60697 2.82963,-0.0382 4.93562,1.00333 6.31795,3.12452 1.38225,2.1214 2.15572,5.55224 2.32041,10.29252 l 15.99017,0 c -0.82331,-9.72572 -3.3122,-16.9703 -7.46668,-21.73377 -4.15458,-4.76323 -9.99772,-7.13724 -17.52944,-7.12205 -7.48202,0.14563 -13.51662,2.84129 -18.10381,8.08698 -4.58724,5.24593 -6.94594,12.16886 -7.07611,20.76884 -0.0115,4.32693 0.79261,8.63079 2.41231,12.9116 1.61968,4.28097 4.12389,8.49294 7.51262,12.6359 0.67007,0.85778 1.94898,2.40472 3.83672,4.64083 1.8877,2.23623 4.22343,4.97784 7.00719,8.22482 4.74034,5.52922 8.17118,10.78269 10.29252,15.76043 2.12125,4.97782 3.16276,10.13939 3.12451,15.48473 -0.0345,3.89801 -0.9305,6.94594 -2.688,9.1438 -1.75758,2.19789 -4.16989,3.31598 -7.23693,3.35426 -2.42383,-0.0306 -4.51449,-0.75048 -6.272,-2.15959 -1.75757,-1.40908 -2.97521,-3.32361 -3.65293,-5.7436 -0.45568,-1.2023 -0.78498,-2.4276 -0.9879,-3.6759 -0.20297,-1.24824 -0.30252,-3.02493 -0.29866,-5.33005 l -15.99017,0 c 0.45565,10.85924 2.94454,19.05342 7.46667,24.58258 4.52211,5.52917 11.10043,8.30141 19.73499,8.31672 3.23935,-0.0191 6.22602,-0.53224 8.96001,-1.53928 2.73391,-1.00704 5.07729,-2.39316 7.03016,-4.15836 3.06702,-2.66119 5.47933,-6.02311 7.23692,-10.08575 1.75748,-4.06262 2.65348,-8.29756 2.68801,-12.70483 z"
         id="path3525"
         inkscape:connector-curvature="0"
         style="font-size:183.79737854px;font-style:normal;font-variant:normal;font-weight:normal;font-stretch:normal;text-align:center;line-height:125%;letter-spacing:0px;word-spacing:0px;text-anchor:middle;fill:#000000;fill-opacity:1;stroke:none;font-family:Roadgeek 2005 Series B;-inkscape-font-specification:Roadgeek 2005 Series B" />
      <path
         d="m 328.60816,438.16995 c -0.0575,-6.79266 -1.1373,-12.87321 -3.23939,-18.24165 -2.10222,-5.36824 -4.88211,-9.51894 -8.3397,-12.45211 -2.06392,-1.74211 -4.59876,-3.03633 -7.60452,-3.88268 -3.00586,-0.8461 -6.22992,-1.26729 -9.67221,-1.26358 l -24.26094,0 0,123.14265 15.62258,0 0,-53.66814 8.63836,0 c 8.76085,-0.1263 15.72974,-3.18189 20.90669,-9.16677 5.17682,-5.98476 7.82653,-14.14066 7.94913,-24.46772 z m -15.99017,0 c 0.0497,6.45206 -0.92285,11.05458 -2.91774,13.8076 -1.99499,2.75317 -5.31096,4.09334 -9.94791,4.02052 l -8.63836,0 0,-37.67798 8.63836,0 c 4.31531,-0.0344 7.53938,1.55088 9.67221,4.7557 2.13274,3.20502 3.19722,8.23641 3.19344,15.09416 z"
         id="path3527"
         inkscape:connector-curvature="0"
         style="font-size:183.79737854px;font-style:normal;font-variant:normal;font-weight:normal;font-stretch:normal;text-align:center;line-height:125%;letter-spacing:0px;word-spacing:0px;text-anchor:middle;fill:#000000;fill-opacity:1;stroke:none;font-family:Roadgeek 2005 Series B;-inkscape-font-specification:Roadgeek 2005 Series B" />
      <path
         d="m 392.54388,525.47258 0,-15.99016 -31.42895,0 0,-43.19183 19.84986,0 0,-16.35776 -19.84986,0 0,-31.61274 29.77479,0 0,-15.99016 -45.39737,0 0,123.14265 z"
         id="path3529"
         inkscape:connector-curvature="0"
         style="font-size:183.79737854px;font-style:normal;font-variant:normal;font-weight:normal;font-stretch:normal;text-align:center;line-height:125%;letter-spacing:0px;word-spacing:0px;text-anchor:middle;fill:#000000;fill-opacity:1;stroke:none;font-family:Roadgeek 2005 Series B;-inkscape-font-specification:Roadgeek 2005 Series B" />
      <path
         d="m 458.95504,525.47258 0,-15.99016 -31.42895,0 0,-43.19183 19.84987,0 0,-16.35776 -19.84987,0 0,-31.61274 29.7748,0 0,-15.99016 -45.39737,0 0,123.14265 z"
         id="path3531"
         inkscape:connector-curvature="0"
         style="font-size:183.79737854px;font-style:normal;font-variant:normal;font-weight:normal;font-stretch:normal;text-align:center;line-height:125%;letter-spacing:0px;word-spacing:0px;text-anchor:middle;fill:#000000;fill-opacity:1;stroke:none;font-family:Roadgeek 2005 Series B;-inkscape-font-specification:Roadgeek 2005 Series B" />
      <path
         d="m 531.43144,463.71746 c -0.004,-5.28021 -0.22598,-10.61792 -0.66626,-16.01314 -0.44041,-5.39507 -1.07603,-10.59493 -1.90687,-15.5996 -0.48636,-3.94384 -1.30578,-7.7729 -2.45826,-11.48719 -1.15261,-3.71409 -2.47746,-6.80796 -3.97457,-9.28165 -1.92224,-3.02867 -4.41879,-5.28782 -7.48964,-6.77744 -3.07096,-1.48938 -6.76217,-2.23222 -11.07365,-2.22851 l -25.54751,0 0,123.14265 25.54751,0 c 3.43845,-0.0115 6.57828,-0.5399 9.41949,-1.58523 2.84112,-1.04533 5.15387,-2.53866 6.93826,-4.48 3.6835,-4.13538 6.47106,-10.84389 8.36267,-20.12556 1.89149,-9.28161 2.8411,-21.13638 2.84883,-35.56433 z m -15.99017,3.85969 c -0.0307,5.68239 -0.19916,11.31876 -0.50543,16.90915 -0.30638,5.59046 -0.56676,9.57268 -0.78113,11.94667 -0.80798,4.56427 -2.04094,7.88789 -3.69888,9.97088 -1.65803,2.08303 -3.85591,3.10921 -6.59364,3.07857 l -9.92493,0 0,-91.16233 9.92493,0 c 3.16276,-0.10328 5.52146,1.16032 7.0761,3.79078 1.55456,2.63067 2.62669,7.24851 3.21642,13.85354 0.21437,4.5337 0.47475,9.75653 0.78112,15.66853 0.30628,5.91214 0.47476,11.22687 0.50544,15.94421 z"
         id="path3533"
         inkscape:connector-curvature="0"
         style="font-size:183.79737854px;font-style:normal;font-variant:normal;font-weight:normal;font-stretch:normal;text-align:center;line-height:125%;letter-spacing:0px;word-spacing:0px;text-anchor:middle;fill:#000000;fill-opacity:1;stroke:none;font-family:Roadgeek 2005 Series B;-inkscape-font-specification:Roadgeek 2005 Series B" />
    </g>
    <g
       id="g3578">
      <path
         d="m 254.03089,755.21931 -25.54751,-123.14266 -15.80637,0 -25.17991,123.14266 15.99016,0 6.98421,-32.89931 20.21745,0 6.98422,32.89931 z m -26.83407,-48.88948 -13.23324,0 6.80041,-32.34792 z"
         id="path3535"
         inkscape:connector-curvature="0"
         style="font-size:183.79737854px;font-style:normal;font-variant:normal;font-weight:normal;font-stretch:normal;text-align:center;line-height:125%;letter-spacing:0px;word-spacing:0px;text-anchor:middle;fill:#000000;fill-opacity:1;stroke:none;font-family:Roadgeek 2005 Series B;-inkscape-font-specification:Roadgeek 2005 Series B" />
      <path
         d="m 324.12093,755.21931 0,-123.14266 -15.62258,0 0,49.62465 -21.87161,0 0,-49.62465 -15.62257,0 0,123.14266 15.62257,0 0,-57.52784 21.87161,0 0,57.52784 z"
         id="path3537"
         inkscape:connector-curvature="0"
         style="font-size:183.79737854px;font-style:normal;font-variant:normal;font-weight:normal;font-stretch:normal;text-align:center;line-height:125%;letter-spacing:0px;word-spacing:0px;text-anchor:middle;fill:#000000;fill-opacity:1;stroke:none;font-family:Roadgeek 2005 Series B;-inkscape-font-specification:Roadgeek 2005 Series B" />
      <path
         d="m 398.10807,755.21931 0,-15.99017 -31.42895,0 0,-43.19183 19.84986,0 0,-16.35775 -19.84986,0 0,-31.61275 29.77479,0 0,-15.99016 -45.39737,0 0,123.14266 z"
         id="path3539"
         inkscape:connector-curvature="0"
         style="font-size:183.79737854px;font-style:normal;font-variant:normal;font-weight:normal;font-stretch:normal;text-align:center;line-height:125%;letter-spacing:0px;word-spacing:0px;text-anchor:middle;fill:#000000;fill-opacity:1;stroke:none;font-family:Roadgeek 2005 Series B;-inkscape-font-specification:Roadgeek 2005 Series B" />
      <path
         d="m 474.44416,755.21931 -25.54751,-123.14266 -15.80637,0 -25.17991,123.14266 15.99016,0 6.98421,-32.89931 20.21745,0 6.98421,32.89931 z m -26.83407,-48.88948 -13.23324,0 6.80041,-32.34792 z"
         id="path3541"
         inkscape:connector-curvature="0"
         style="font-size:183.79737854px;font-style:normal;font-variant:normal;font-weight:normal;font-stretch:normal;text-align:center;line-height:125%;letter-spacing:0px;word-spacing:0px;text-anchor:middle;fill:#000000;fill-opacity:1;stroke:none;font-family:Roadgeek 2005 Series B;-inkscape-font-specification:Roadgeek 2005 Series B" />
      <path
         d="m 544.5342,693.46418 c -0.004,-5.28021 -0.22598,-10.61792 -0.66626,-16.01314 -0.44041,-5.39507 -1.07603,-10.59493 -1.90687,-15.5996 -0.48635,-3.94384 -1.30577,-7.7729 -2.45826,-11.48719 -1.15261,-3.71408 -2.47746,-6.80796 -3.97456,-9.28165 -1.92225,-3.02867 -4.41879,-5.28781 -7.48965,-6.77744 -3.07096,-1.48938 -6.76217,-2.23222 -11.07365,-2.22851 l -25.54751,0 0,123.14266 25.54751,0 c 3.43845,-0.0115 6.57828,-0.5399 9.41949,-1.58524 2.84112,-1.04533 5.15387,-2.53866 6.93827,-4.48 3.6835,-4.13538 6.47105,-10.84389 8.36267,-20.12556 1.89149,-9.28161 2.84109,-21.13637 2.84882,-35.56433 z m -15.99016,3.8597 c -0.0307,5.68238 -0.19916,11.31876 -0.50544,16.90914 -0.30638,5.59047 -0.56675,9.57269 -0.78113,11.94668 -0.80798,4.56426 -2.04094,7.88788 -3.69888,9.97087 -1.65803,2.08303 -3.85591,3.10922 -6.59364,3.07857 l -9.92493,0 0,-91.16233 9.92493,0 c 3.16276,-0.10327 5.52146,1.16032 7.07611,3.79078 1.55455,2.63067 2.62669,7.24851 3.21641,13.85355 0.21438,4.53369 0.47475,9.75653 0.78113,15.66852 0.30627,5.91214 0.47475,11.22688 0.50544,15.94422 z"
         id="path3543"
         inkscape:connector-curvature="0"
         style="font-size:183.79737854px;font-style:normal;font-variant:normal;font-weight:normal;font-stretch:normal;text-align:center;line-height:125%;letter-spacing:0px;word-spacing:0px;text-anchor:middle;fill:#000000;fill-opacity:1;stroke:none;font-family:Roadgeek 2005 Series B;-inkscape-font-specification:Roadgeek 2005 Series B" />
    </g>
  </g>
</svg>
