<?xml version="1.0" encoding="UTF-8" standalone="no"?>
<svg
   xmlns:dc="http://purl.org/dc/elements/1.1/"
   xmlns:cc="http://creativecommons.org/ns#"
   xmlns:rdf="http://www.w3.org/1999/02/22-rdf-syntax-ns#"
   xmlns:svg="http://www.w3.org/2000/svg"
   xmlns="http://www.w3.org/2000/svg"
   xmlns:sodipodi="http://sodipodi.sourceforge.net/DTD/sodipodi-0.dtd"
   xmlns:inkscape="http://www.inkscape.org/namespaces/inkscape"
   width="531.49603"
   height="531.49603"
   id="svg2"
   version="1.1"
   inkscape:version="0.48.5 r10040"
   sodipodi:docname="touched_wheel.svg">
  <metadata
     id="metadata605">
    <rdf:RDF>
      <cc:Work
         rdf:about="">
        <dc:format>image/svg+xml</dc:format>
        <dc:type
           rdf:resource="http://purl.org/dc/dcmitype/StillImage" />
        <dc:title />
      </cc:Work>
    </rdf:RDF>
  </metadata>
  <sodipodi:namedview
     pagecolor="#ffffff"
     bordercolor="#666666"
     borderopacity="1"
     objecttolerance="10"
     gridtolerance="10"
     guidetolerance="10"
     inkscape:pageopacity="0"
     inkscape:pageshadow="2"
     inkscape:window-width="1920"
     inkscape:window-height="1022"
     id="namedview603"
     showgrid="false"
     inkscape:zoom="1.1813016"
     inkscape:cx="212.1616"
     inkscape:cy="243.48186"
     inkscape:window-x="1920"
     inkscape:window-y="25"
     inkscape:window-maximized="1"
     inkscape:current-layer="g21"
     units="mm" />
  <desc
     id="desc4">/media/shared/Recherche et Developpement/Documentation Technique/Electronique/Capteurs/Capacitif/capacitive_wheel/Wheel_2.DXF - scale = 1.000000</desc>
  <defs
     id="defs6">
    <marker
       inkscape:stockid="Arrow2Lend"
       orient="auto"
       refY="0.0"
       refX="0.0"
       id="Arrow2Lend"
       style="overflow:visible;">
      <path
         id="path4171"
         style="fill-rule:evenodd;stroke-width:0.62500000;stroke-linejoin:round;"
         d="M 8.7185878,4.0337352 L -2.2072895,0.016013256 L 8.7185884,-4.0017078 C 6.9730900,-1.6296469 6.9831476,1.6157441 8.7185878,4.0337352 z "
         transform="scale(1.1) rotate(180) translate(1,0)" />
    </marker>
    <marker
       inkscape:stockid="Arrow2Send"
       orient="auto"
       refY="0.0"
       refX="0.0"
       id="Arrow2Send"
       style="overflow:visible;">
      <path
         id="path4183"
         style="fill-rule:evenodd;stroke-width:0.62500000;stroke-linejoin:round;"
         d="M 8.7185878,4.0337352 L -2.2072895,0.016013256 L 8.7185884,-4.0017078 C 6.9730900,-1.6296469 6.9831476,1.6157441 8.7185878,4.0337352 z "
         transform="scale(0.3) rotate(180) translate(-2.3,0)" />
    </marker>
    <marker
       id="DistanceX"
       orient="auto"
       refX="0"
       refY="0"
       style="overflow:visible">
      <path
         d="M 3,-3 -3,3 M 0,-5 0,5"
         style="stroke:#000000;stroke-width:0.5"
         id="path9"
         inkscape:connector-curvature="0" />
    </marker>
    <pattern
       height="8"
       id="Hatch"
       patternUnits="userSpaceOnUse"
       width="8"
       x="0"
       y="0">
      <path
         d="M8 4 l-4,4"
         linecap="square"
         stroke="#000000"
         stroke-width="0.25"
         id="path12" />
      <path
         d="M6 2 l-4,4"
         linecap="square"
         stroke="#000000"
         stroke-width="0.25"
         id="path14" />
      <path
         d="M4 0 l-4,4"
         linecap="square"
         stroke="#000000"
         stroke-width="0.25"
         id="path16" />
    </pattern>
    <symbol
       id="*Model_Space" />
    <symbol
       id="*Paper_Space" />
    <symbol
       id="*Paper_Space0" />
  </defs>
  <g
     inkscape:groupmode="layer"
     inkscape:label="0"
     id="g21"
     transform="translate(0,-520.86614)">
    <path
       style="fill:#000000;fill-opacity:1;fill-rule:nonzero;stroke:none"
       d="m 251.27486,1050.6552 c -28.45253,-1.6081 -58.59644,-8.4078 -84.85042,-19.1402 -7.30739,-2.987 -19.17368,-8.4479 -18.91641,-8.7051 0.11609,-0.1162 2.67926,0.7612 5.69593,1.9497 16.00144,6.3042 35.30389,11.1045 52.7545,13.1197 15.80972,1.8256 36.61855,1.7427 51.74099,-0.2062 4.1983,-0.5411 7.84251,-0.9837 8.09827,-0.9837 0.25573,0 0.46487,-0.8159 0.46474,-1.8131 l -2.3e-4,-1.813 -13.89977,-0.024 c -14.34598,-0.024 -20.21218,-0.5038 -32.99715,-2.6974 -16.10162,-2.7628 -34.18013,-8.4698 -49.55654,-15.6442 -6.21437,-2.8995 -13.90711,-7.0509 -13.61218,-7.3459 0.12579,-0.1257 2.26096,0.5295 4.7448,1.4561 33.01791,12.3176 68.68951,15.7884 102.2323,9.9472 2.95286,-0.5142 3.08901,-0.599 3.08901,-1.9238 l 0,-1.3859 -11.96609,0.01 c -29.5972,0.018 -54.01727,-5.5937 -80.13653,-18.41708 -8.32044,-4.08486 -12.03905,-6.24122 -9.66956,-5.6071 0.53183,0.14231 4.44799,1.45632 8.70261,2.91999 13.16204,4.5281 28.15721,7.74189 41.82087,8.96309 7.18082,0.642 24.783,0.6387 31.90957,-0.01 5.25664,-0.4754 16.71801,-2.1315 18.44084,-2.6646 0.43664,-0.1351 0.90578,-0.6736 1.04257,-1.19669 0.22943,-0.87731 0.68707,-0.95088 5.91318,-0.95088 3.11548,0 9.17328,-0.33958 13.46178,-0.75464 28.07327,-2.71699 54.32421,-10.53159 79.47293,-23.65812 3.25744,-1.70025 5.91357,-2.94036 5.9025,-2.75584 -0.0111,0.18455 -2.37038,2.22301 -5.24294,4.52994 -23.76646,19.08661 -53.57352,32.36943 -82.89885,36.94163 l -5.63288,0.8783 0,1.5955 0,1.5954 2.53826,0 c 4.76876,0 18.00129,-0.9688 23.8113,-1.7376 24.41696,-3.2308 50.22839,-12.3456 70.4146,-24.86547 2.16045,-1.33997 4.02665,-2.33774 4.14711,-2.2173 0.53887,0.53887 -11.80546,9.64807 -20.17041,14.88427 -14.18611,8.88 -27.67554,15.1568 -43.9155,20.4343 -10.57373,3.4361 -18.40907,5.2178 -34.2871,7.7965 -1.38093,0.2244 -1.5713,0.4372 -1.5713,1.7576 l 0,1.5025 9.06522,-0.288 c 33.04607,-1.0503 66.73654,-11.1334 95.53648,-28.593 3.40219,-2.0625 6.29735,-3.6385 6.4337,-3.5021 0.55297,0.5529 -12.41169,10.1575 -21.10844,15.6377 -24.81196,15.6351 -54.35317,26.5111 -82.79565,30.4825 -4.98043,0.6954 -6.16435,1.0098 -6.16435,1.6371 0,0.6057 -0.71726,0.8441 -3.26349,1.0847 -4.15244,0.3921 -15.73566,0.2878 -24.77827,-0.2235 l 0,0 z"
       id="path3890"
       inkscape:connector-curvature="0" />
    <path
       style="fill:#000000;fill-opacity:1;fill-rule:nonzero;stroke:none"
       d="m 218.03356,1037.6108 c -22.23467,-1.3434 -44.80585,-6.4233 -65.82545,-14.8145 -4.47454,-1.7864 -5.67964,-2.0976 -6.39416,-1.6513 -0.7314,0.4567 -1.80318,0.047 -6.33151,-2.4207 -30.36833,-16.5493 -58.149654,-39.8887 -79.966211,-67.18067 -5.709869,-7.1429 -13.002047,-17.26347 -12.674717,-17.5908 0.107386,-0.10737 2.4002,2.45887 5.095132,5.70281 21.486513,25.86353 49.158966,46.44182 80.451586,59.82683 8.7134,3.72713 9.24811,3.84023 10.03082,2.12233 0.33164,-0.7279 0.42668,-1.4997 0.21118,-1.71519 -0.21549,-0.21548 -2.89108,-1.7282 -5.94576,-3.36146 -25.14376,-13.44414 -47.611907,-32.92588 -64.921905,-56.29273 -4.46433,-6.02643 -12.175298,-18.06138 -11.807704,-18.42899 0.115809,-0.11581 1.157844,1.04621 2.315635,2.58225 7.345666,9.7456 20.4144,22.78625 32.034211,31.96535 14.212603,11.2273 31.694033,21.32429 48.588493,28.06392 4.07625,1.62613 7.49596,2.95659 7.59934,2.95659 0.10335,0 0.49839,-0.59246 0.87779,-1.31658 l 0.68983,-1.31658 -4.90482,-2.59872 c -24.32589,-12.88862 -44.65765,-30.27942 -60.86413,-52.06029 -4.600083,-6.18234 -11.280891,-16.56269 -10.902986,-16.94061 0.125016,-0.12501 2.114595,2.02639 4.421297,4.78091 4.813465,5.74795 17.215757,18.04659 22.554029,22.36554 16.07267,13.0036 32.7024,22.63276 50.91735,29.48276 5.20622,1.95787 6.26774,2.21765 6.64737,1.62676 0.37293,-0.58047 1.47881,-0.16629 6.33706,2.37341 20.25804,10.59005 41.27543,17.80712 63.01128,21.63704 9.35342,1.64805 23.06316,3.05989 29.85478,3.07428 3.12448,0.0101 5.68087,0.20119 5.68087,0.43247 0,0.53624 -10.93671,2.26437 -19.0546,3.01067 -9.01515,0.829 -29.95694,0.296 -38.67317,-0.984 -15.34037,-2.25292 -25.69674,-4.86595 -38.68678,-9.76109 -3.43521,-1.29453 -6.28847,-2.2997 -6.3406,-2.23374 -0.26142,0.33095 -1.19267,2.26363 -1.19267,2.47519 0,0.13375 2.77396,1.75966 6.16435,3.61313 21.77966,11.90651 45.96831,19.12621 71.4339,21.32151 3.19097,0.2751 10.47939,0.5285 16.19653,0.5633 l 10.39478,0.063 -5.07871,0.861 c -31.84802,5.3991 -68.66718,1.3534 -100.0462,-10.9932 -5.26906,-2.0732 -5.55886,-2.1336 -6.17831,-1.2865 -0.35748,0.489 -0.58902,1.2053 -0.51454,1.5919 0.17491,0.9084 13.62658,7.884 22.50484,11.6705 12.96139,5.5279 30.09793,10.5608 44.269,13.0016 10.80474,1.861 19.86992,2.5895 32.83598,2.6384 15.4932,0.058 16.27662,0.4704 3.74708,1.9705 -13.32266,1.5949 -25.46753,1.9646 -38.55958,1.1736 l 0,0 z"
       id="path3892"
       inkscape:connector-curvature="0" />
    <path
       style="fill:#000000;fill-opacity:1;fill-rule:nonzero;stroke:none"
       d="m 133.30618,998.31791 c -20.18727,-8.70953 -38.684362,-20.1398 -54.874781,-33.90984 -9.640675,-8.19943 -23.150655,-22.36171 -30.125493,-31.58002 -2.029577,-2.68238 -2.898506,-3.4819 -3.588223,-3.30153 -1.062444,0.27783 -2.854232,-2.34802 -8.794208,-12.88785 C 18.305791,885.378 7.1439493,850.66267 3.2715152,815.08522 2.1290997,804.58945 1.9190774,801.23471 2.4044342,801.23511 c 0.1994345,1.7e-4 0.3626082,0.63203 0.3626082,1.40414 0,2.82144 2.5566085,16.46481 4.6520124,24.82554 7.6507962,30.52691 20.9312272,57.14398 41.5734642,83.32291 0.690823,0.87611 1.399697,0.85976 2.810847,-0.0649 l 1.13795,-0.74561 -4.096396,-6.62744 C 31.255212,874.89193 21.216088,841.70871 19.853133,807.52062 c -0.164315,-4.12165 -0.162839,-7.37011 0.0033,-7.21878 0.166122,0.15131 0.85973,3.57846 1.541355,7.61589 4.676064,27.69742 15.455593,54.58039 31.009642,77.33467 4.0955,5.99137 8.856056,12.32433 11.840228,15.751 l 1.622976,1.86362 1.159853,-0.93918 1.159853,-0.93919 -3.157661,-5.03401 C 48.158484,869.05344 38.473072,837.93986 37.804854,808.48758 l -0.2139,-9.42782 1.209226,6.52696 c 5.555306,29.98547 16.971883,56.07288 34.488104,78.80696 5.521399,7.16614 7.443933,9.2232 8.48436,9.07809 0.755146,-0.10531 1.734911,1.10933 4.610569,5.71594 8.349682,13.37561 17.697047,25.07373 29.517737,36.9411 12.04034,12.08788 25.16775,22.59969 38.30879,30.67589 2.57634,1.58335 4.5955,2.96759 4.487,3.07608 -0.49003,0.49004 -12.00318,-4.28614 -20.79752,-8.62775 -13.00324,-6.41947 -21.83165,-12.04942 -33.84349,-21.58229 -6.54244,-5.19222 -18.899818,-17.4774 -24.599036,-24.45533 -2.334732,-2.85857 -4.421091,-5.19738 -4.636352,-5.19738 -0.215272,0 -0.837922,0.38073 -1.383691,0.84607 -0.987234,0.84176 -0.974912,0.87452 2.408519,6.40609 14.500984,23.70768 34.96008,44.43642 58.26701,59.03496 3.24413,2.03199 8.10618,4.82858 10.80454,6.21464 2.69838,1.38604 4.81313,2.6131 4.69948,2.72677 -0.30001,0.3 -5.66438,-1.78299 -13.28584,-5.1589 -27.54705,-12.20196 -52.823749,-31.65641 -71.710857,-55.19296 -2.191477,-2.73097 -4.227044,-5.02606 -4.52348,-5.10022 -0.296444,-0.0742 -0.966741,0.17794 -1.489553,0.56022 -0.939449,0.68695 -0.937212,0.71961 0.191152,2.79398 2.450407,4.50479 11.440539,17.62286 15.935515,23.25252 17.106579,21.42486 38.795383,39.59725 61.595673,51.60914 2.85906,1.50625 5.05284,2.88406 4.87507,3.06186 -0.46789,0.4679 -0.26641,0.5382 -7.8977,-2.75429 l 0,0 z"
       id="path3894"
       inkscape:connector-curvature="0" />
    <path
       style="fill:#000000;fill-opacity:1;fill-rule:nonzero;stroke:none"
       d="M 48.88398,908.24011 C 43.131483,901.06745 34.764798,888.73483 30.103313,880.55715 16.866501,857.3357 7.7244883,829.86857 3.9838999,802.0815 c -0.2481926,-1.84371 -0.4939687,-2.29653 -1.2464821,-2.29653 -0.9032192,0 -0.9372883,-0.45307 -0.9361581,-12.44957 0.0013,-13.65215 0.4552501,-21.36675 1.9701678,-33.48087 3.2722629,-26.16681 10.7867405,-52.71859 21.8244215,-77.11478 4.981526,-11.01047 5.40115,-10.86574 1.133804,0.39112 -6.224775,16.42037 -10.215602,33.80756 -12.449966,54.24193 -1.28855,11.7844 -0.706902,38.23692 1.084352,49.31479 1.075938,6.65404 0.800152,6.04348 2.72974,6.04348 l 1.745531,0 -0.297943,-6.89836 c -1.229689,-28.47125 5.256021,-60.43806 17.873179,-88.09343 3.197103,-7.00768 7.907625,-15.87687 8.250354,-15.53413 0.108038,0.10801 -0.891922,3.10086 -2.222133,6.65073 -11.349287,30.28725 -14.942589,64.9346 -10.045917,96.86475 l 1.038019,6.76868 1.5105,0.14697 1.510501,0.14698 -0.247656,-8.63783 c -0.705013,-24.58953 4.210751,-50.54299 13.981998,-73.81991 3.465353,-8.25511 9.916913,-20.89728 10.411768,-20.40243 0.124594,0.1246 -0.746002,2.81239 -1.934662,5.97288 -10.310144,27.41327 -13.429726,59.15908 -8.752428,89.06735 0.64181,4.10399 1.16694,7.53065 1.16694,7.61477 0,0.0841 0.40596,0.15298 0.902125,0.15298 0.827979,0 0.93004,0.62598 1.241588,7.61476 1.466114,32.88874 9.70497,63.71932 24.437954,91.44924 1.610405,3.03103 2.845088,5.59387 2.74376,5.6952 -0.221688,0.22169 -6.841833,-7.89972 -10.383261,-12.7379 -10.222563,-13.96571 -20.500465,-34.75561 -25.654159,-51.89261 -2.786056,-9.26417 -4.201024,-15.5977 -6.129768,-27.4374 -0.224908,-1.3806 -0.438243,-1.5713 -1.757908,-1.5713 l -1.501936,0 0.301304,9.30696 c 0.984809,30.4198 9.846578,60.27889 25.705206,86.61182 1.744453,2.89664 3.077512,5.36083 2.962364,5.47597 -0.261138,0.26114 -6.153449,-7.33282 -10.285844,-13.2563 -12.967711,-18.58819 -23.108065,-40.88527 -28.671406,-63.044 -1.910623,-7.60999 -4.369154,-20.52312 -4.369154,-22.94843 0,-1.02519 -0.220849,-1.17906 -1.692174,-1.17906 l -1.692174,0 0.0074,3.02175 c 0.01183,4.7773 0.900682,16.9647 1.718986,23.56955 3.415608,27.56868 14.014144,57.42139 28.36257,79.88835 2.594187,4.06203 2.945974,5.92171 0.556598,2.94244 l 0,0 z"
       id="path3896"
       inkscape:connector-curvature="0" />
    <path
       style="fill:#000000;fill-opacity:1;fill-rule:nonzero;stroke:none"
       d="m 17.082663,783.22585 c -0.177879,-1.39605 -0.686502,-5.25784 -1.13027,-8.58175 -1.195712,-8.9561 -1.181492,-36.74643 0.02374,-46.40909 2.510467,-20.12692 6.688378,-36.8623 13.693228,-54.85068 2.214516,-5.68685 2.511197,-6.8032 1.899067,-7.14576 -0.791329,-0.44285 -0.327258,-1.42188 5.678963,-11.98055 17.89065,-31.45103 45.969491,-62.19403 76.374247,-83.62079 5.9907,-4.22174 8.1408,-5.10869 3.33247,-1.37467 -8.98433,6.97695 -22.262807,19.83417 -30.108929,29.15372 -14.262306,16.94062 -25.843071,35.85545 -34.037406,55.59325 l -3.20873,7.72889 1.053215,0.85284 c 0.579262,0.46908 1.314822,0.85283 1.634585,0.85283 0.319754,0 1.872995,-2.44484 3.451654,-5.433 14.77734,-27.9713 37.411463,-52.99921 64.068621,-70.84459 6.11655,-4.09465 10.15876,-6.51427 10.42988,-6.24317 0.1089,0.1089 -1.49482,1.53416 -3.56382,3.16724 -5.04346,3.9809 -15.25568,13.64288 -21.01813,19.8857 -12.32158,13.34873 -22.644319,28.46186 -31.041669,45.44695 -4.424228,8.94878 -9.179192,20.577 -8.808887,21.54201 0.133973,0.34912 0.665684,0.86065 1.181577,1.13675 0.849613,0.4547 1.288929,-0.14603 4.661798,-6.37446 13.861551,-25.59716 34.179061,-47.96736 58.032211,-63.89525 5.99352,-4.00214 10.433,-6.68155 10.67299,-6.44155 0.0886,0.0886 -1.95026,1.91666 -4.53075,4.0624 -18.59368,15.46108 -34.23138,35.09249 -44.880118,56.34204 -6.253021,12.4779 -10.390371,23.15045 -9.498778,24.50265 0.415921,0.63079 -0.150603,2.08042 -2.766295,7.07847 -14.889364,28.45041 -22.904472,58.29841 -24.446946,91.03971 -0.179165,3.80297 -0.43713,6.80311 -0.573252,6.66699 -0.960006,-0.96001 -3.028443,-18.32204 -3.346024,-28.08583 -0.761907,-23.42426 3.8098,-50.18557 11.942487,-69.90755 0.787551,-1.90982 1.431902,-3.73391 1.431902,-4.05352 0,-0.51685 -2.374333,-1.94876 -2.653906,-1.60051 -0.792108,0.98668 -6.649342,12.2774 -8.74457,16.85649 -11.066639,24.18599 -16.288908,48.19844 -16.366526,75.25475 -0.03675,12.80868 -0.182973,13.25539 -1.435121,4.38409 -1.932529,-13.69174 -2.32708,-31.30929 -1.011167,-45.15089 1.739115,-18.2931 6.487435,-37.97173 12.997153,-53.86461 1.529123,-3.73321 1.611129,-4.16491 0.895431,-4.7139 -1.795004,-1.37695 -2.298507,-0.75559 -7.247861,8.94434 -10.903392,21.36887 -17.138533,41.4917 -20.483477,66.10689 -0.726031,5.34282 -1.057528,11.12449 -1.254862,21.88615 -0.147499,8.04387 -0.42706,14.62522 -0.621247,14.62522 -0.194188,0 -0.498606,-1.14221 -0.676485,-2.53825 z"
       id="path3898"
       inkscape:connector-curvature="0" />
    <path
       style="fill:#000000;fill-opacity:1;fill-rule:nonzero;stroke:none"
       d="m 83.024436,678.44641 c 0,-1.46076 5.664752,-14.75598 9.546066,-22.40476 10.800528,-21.28417 28.345518,-42.95864 46.277108,-57.16911 3.56699,-2.82678 4.02935,-3.36352 3.59565,-4.17392 -0.27375,-0.51152 -0.79075,-1.04245 -1.14887,-1.17987 -1.25766,-0.48261 -15.83856,8.98662 -24.59113,15.97014 -19.138711,15.27043 -36.797284,36.64687 -46.985411,56.8778 -0.958814,1.90395 -1.850168,3.35487 -1.980775,3.22426 -0.345467,-0.34548 2.41133,-7.33841 5.854023,-14.84946 6.175923,-13.4742 15.279079,-28.13672 25.213914,-40.61217 6.389009,-8.02287 20.626709,-22.33285 28.568009,-28.71306 5.07341,-4.07606 5.84462,-4.87592 5.43654,-5.63843 -0.85577,-1.59903 -1.43772,-1.53563 -4.96443,0.54098 -29.455811,17.34421 -57.042095,46.15581 -72.895262,76.13308 -2.943187,5.56538 -2.7781,5.3094 -3.170815,4.91669 -0.516802,-0.5168 3.654752,-10.3011 8.597164,-20.16448 13.771363,-27.48302 33.073535,-51.28293 57.102223,-70.40804 3.25404,-2.58997 6.00183,-4.77253 6.1062,-4.85012 0.10432,-0.0776 -0.0657,-0.44884 -0.37783,-0.82498 -0.46647,-0.56206 0.27497,-1.19914 4.16153,-3.57581 23.2229,-14.20097 46.99117,-24.26893 73.30299,-31.05025 15.51045,-3.99746 33.84483,-6.97896 45.81856,-7.45087 3.03061,-0.11945 4.74872,-0.11024 3.81802,0.0205 -35.02116,4.91862 -66.03916,16.73827 -94.03652,35.8333 -5.769,3.93462 -15.23151,11.18243 -15.22638,11.66262 0.001,0.16367 0.38343,0.87408 0.84817,1.57872 l 0.84498,1.28116 7.49184,-4.56481 c 23.1781,-14.12253 49.24911,-23.32568 76.38748,-26.96503 9.63467,-1.29205 26.79375,-2.25812 25.99943,-1.46378 -0.14826,0.14825 -2.39796,0.5893 -4.99934,0.98009 -32.95463,4.95061 -66.06571,19.39512 -91.73158,40.01738 -2.69577,2.166 -5.11365,4.08577 -5.37311,4.26616 -0.54135,0.37639 0.40136,2.81462 1.08822,2.81462 0.23483,0 3.44859,-1.86498 7.14167,-4.14442 21.17675,-13.07064 45.59351,-21.70483 71.01731,-25.11297 6.65755,-0.89246 25.99577,-1.49759 21.51478,-0.67323 -1.46252,0.26905 -4.94356,0.93057 -7.73564,1.47003 -28.98398,5.60006 -56.26334,18.25172 -78.504,36.40874 -2.62545,2.14339 -5.06263,4.13101 -5.41597,4.41692 -0.35332,0.28591 -0.53858,0.93861 -0.4117,1.45044 0.18667,0.75292 -0.8101,1.57244 -5.22055,4.29224 -26.20755,16.16148 -50.57076,40.31522 -66.833887,66.25922 -3.790799,6.04734 -4.128677,6.50354 -4.128677,5.57448 z"
       id="path3900"
       inkscape:connector-curvature="0" />
    <path
       style="fill:#000000;fill-opacity:1;fill-rule:nonzero;stroke:none"
       d="m 164.00705,599.34117 c 7.57469,-6.81322 20.41356,-15.24709 32.63478,-21.4378 17.80789,-9.0207 32.61032,-13.99718 51.219,-17.21948 3.8394,-0.66484 7.07461,-1.30269 7.18936,-1.41743 0.11475,-0.11475 0.0613,-0.79557 -0.11872,-1.51294 l -0.32736,-1.3043 -9.03766,0.30278 c -21.03381,0.7047 -42.10178,5.21538 -61.7368,13.21796 -7.50909,3.06044 -19.43218,9.09924 -25.5577,12.94442 -2.86451,1.79814 -5.29327,3.18425 -5.39727,3.08025 -0.27886,-0.27886 7.23722,-6.18595 13.19453,-10.3699 22.83133,-16.03505 51.13896,-27.67586 78.59625,-32.32078 3.94335,-0.66709 7.69635,-1.2129 8.34002,-1.2129 0.89349,0 1.16852,-0.25728 1.16286,-1.08782 -0.0161,-2.3642 -0.32261,-2.44362 -8.03633,-2.08209 -24.64916,1.15527 -45.03448,5.39549 -66.75282,13.88485 -11.12017,4.34669 -26.32041,12.1473 -35.07389,17.99956 -0.76567,0.5119 -1.32956,0.66077 -1.32956,0.35101 0,-1.30006 15.56012,-12.44566 25.86608,-18.5277 25.33719,-14.95266 52.37868,-24.23799 82.07044,-28.18079 1.90138,-0.2525 2.29653,-0.47706 2.29653,-1.30517 0,-0.99652 0.0591,-0.99923 16.07564,-0.73603 15.53323,0.25527 23.11406,0.80865 35.17305,2.56755 24.50764,3.57463 50.99345,11.56621 74.34193,22.43126 2.46361,1.14644 4.38861,2.17513 4.27776,2.28599 -0.11086,0.11086 -3.16116,-0.90085 -6.77846,-2.24824 -16.78148,-6.25084 -33.22394,-10.12829 -52.74383,-12.43801 -5.55756,-0.65761 -10.81087,-0.85217 -22.48174,-0.83268 -14.84073,0.0248 -23.11477,0.57842 -32.14401,2.15078 -3.14306,0.54734 -3.14991,0.55207 -3.14991,2.17151 l 0,1.62298 12.20781,-0.0153 c 12.13905,-0.0152 19.40796,0.43677 28.6461,1.78121 23.04547,3.35386 45.14949,10.65906 65.8509,21.76317 2.77712,1.48962 4.96559,2.79213 4.86325,2.89447 -0.10237,0.10238 -2.11724,-0.57209 -4.47758,-1.49873 -30.61485,-12.01887 -65.84551,-16.04284 -98.98486,-11.30583 -3.65227,0.52207 -6.97014,1.0757 -7.37305,1.23032 -0.41499,0.15925 -0.73257,0.87263 -0.73257,1.64553 l 0,1.36442 8.82349,-0.27308 c 28.28388,-0.87533 57.96552,5.71069 83.7626,18.58598 6.57158,3.27986 11.46734,5.98515 11.24099,6.21151 -0.0939,0.0939 -2.4263,-0.70397 -5.18309,-1.77304 -13.23386,-5.13199 -28.83886,-8.79401 -45.46138,-10.66841 -8.11144,-0.91469 -29.52802,-0.77795 -37.71131,0.24076 -11.26529,1.40236 -15.4713,2.28439 -15.4713,3.24446 0,0.74275 -0.81166,0.87483 -7.13131,1.1605 -32.74716,1.48032 -64.66739,9.94283 -91.21345,24.18196 -2.73873,1.46904 -5.1742,2.66123 -5.41215,2.64932 -0.23796,-0.0119 0.65517,-1.00014 1.98474,-2.19605 z"
       id="path3902"
       inkscape:connector-curvature="0" />
    <path
       style="fill:#000000;fill-opacity:1;fill-rule:nonzero;stroke:none"
       d="m 453.33733,656.32129 c -1.69205,-2.0655 -6.0214,-6.77122 -9.62077,-10.45714 -18.57819,-19.02505 -40.0628,-33.0844 -64.75431,-42.37475 -4.32013,-1.62546 -5.69246,-1.9601 -6.35123,-1.54868 -0.68153,0.42561 -2.70099,-0.40907 -10.68564,-4.41668 -28.01831,-14.06275 -55.77819,-21.25469 -88.07738,-22.8188 -3.67251,-0.17785 -6.59437,-0.40627 -6.49302,-0.50762 0.36914,-0.36915 8.006,-1.65155 14.13728,-2.37399 27.20394,-3.20534 55.94679,0.37092 82.38129,10.25012 5.73488,2.14326 6.01983,2.20079 6.64781,1.34196 0.36087,-0.49352 0.65612,-1.13204 0.65612,-1.41896 0,-0.63277 -8.02756,-5.13866 -15.01372,-8.42722 -18.51203,-8.71411 -37.74623,-14.02517 -59.92541,-16.54699 -2.79209,-0.31746 -10.45709,-0.59784 -17.03334,-0.62305 -12.56769,-0.0482 -12.99311,-0.19667 -4.14215,-1.44595 9.38048,-1.32402 15.74246,-1.74166 26.53697,-1.74208 26.53798,-8.1e-4 50.79754,4.8559 75.89762,15.19521 0.84691,0.34886 2.23872,-2.01498 1.5597,-2.64898 -0.78763,-0.73541 -9.73772,-5.51935 -14.64837,-7.82972 -19.3935,-9.12433 -38.93058,-14.82958 -60.91826,-17.78943 -5.48861,-0.73885 -11.34278,-1.08325 -21.87738,-1.28703 -7.91092,-0.15303 -14.38349,-0.43775 -14.38349,-0.6327 0,-0.36483 0.9659,-0.52055 10.87827,-1.7539 8.17378,-1.01705 28.77679,-1.39711 37.95304,-0.70013 23.08961,1.75376 45.30341,6.94458 65.74786,15.36368 3.6014,1.48307 4.1627,1.59777 4.58018,0.93594 0.41005,-0.65008 1.11209,-0.41146 5.0817,1.72723 29.3049,15.78834 56.37335,37.94968 77.83189,63.72204 7.25618,8.71491 16.35615,21.05382 15.87905,21.53091 -0.11574,0.11574 -1.57138,-1.47227 -3.23475,-3.52894 -14.88152,-18.40004 -34.63983,-35.57478 -55.16941,-47.9555 -13.14234,-7.9257 -35.40676,-18.26444 -36.33792,-16.87392 -0.88305,1.31867 -1.44777,2.4332 -1.29168,2.54928 0.0881,0.0654 2.30687,1.25424 4.93079,2.64174 26.47418,13.99919 49.45191,33.92324 67.26239,58.32338 4.42496,6.06215 11.13593,16.58167 10.7955,16.92208 -0.11866,0.11866 -1.68845,-1.63658 -3.48843,-3.90056 -17.12636,-21.54099 -42.58033,-41.5829 -67.97847,-53.52476 -5.47093,-2.57236 -17.92656,-7.6098 -18.81606,-7.6098 -0.54413,0 -1.82378,2.28078 -1.44769,2.58028 0.10966,0.0874 2.78093,1.51471 5.93614,3.17193 10.39395,5.45924 20.06819,11.93234 30.23762,20.23222 6.35629,5.18773 18.34728,17.17154 23.49347,23.47939 6.87676,8.42907 17.24575,23.62029 16.57809,24.28794 -0.13058,0.13058 -1.62184,-1.45253 -3.3139,-3.51805 l 0,0 z"
       id="path3904"
       inkscape:connector-curvature="0" />
    <path
       style="fill:#000000;fill-opacity:1;fill-rule:nonzero;stroke:none"
       d="m 494.36081,773.19367 c -0.17688,-0.66478 -0.68121,-3.38435 -1.12073,-6.04348 -4.50425,-27.25123 -16.48672,-54.85622 -33.57806,-77.35652 -6.37272,-8.38954 -8.24396,-10.41981 -9.1545,-9.9325 -0.63328,0.33892 -1.41309,-0.60338 -4.11949,-4.97777 -14.44139,-23.34192 -34.92719,-45.14746 -57.4216,-61.12082 -3.37877,-2.39928 -8.21847,-5.63711 -10.75488,-7.19519 -2.53641,-1.55807 -4.61279,-2.97354 -4.61416,-3.1455 -0.003,-0.43541 7.71768,2.48015 14.77874,5.58053 24.44379,10.73282 49.6887,30.20488 65.71788,50.6899 1.59547,2.03901 3.00965,3.71245 3.14261,3.71876 0.13295,0.006 0.75457,-0.3829 1.38138,-0.865 l 1.13964,-0.8765 -3.31273,-5.51882 c -16.11711,-26.85026 -39.72153,-49.32745 -68.31602,-65.05361 -3.07432,-1.69078 -5.34325,-3.0745 -5.04207,-3.0749 1.13345,-10e-4 11.82268,4.54358 19.275,8.19589 25.23808,12.36888 48.52262,31.02521 65.6498,52.60074 2.16365,2.72561 4.05106,4.95081 4.19423,4.94489 0.14319,-0.005 0.75294,-0.3899 1.35502,-0.85333 l 1.0947,-0.8426 -2.79632,-4.58579 c -14.61041,-23.96014 -33.20564,-43.88885 -55.74004,-59.7372 -6.14234,-4.31988 -15.67975,-10.20882 -20.52607,-12.67394 -1.59549,-0.81157 -3.33601,-1.83433 -3.86783,-2.27282 -0.94172,-0.77644 -0.93226,-0.78985 0.36248,-0.51341 4.37019,0.93312 23.20199,10.06892 33.41355,16.20981 22.10768,13.29483 43.76935,32.59889 58.92278,52.50976 1.56808,2.06037 2.55046,2.93019 3.2763,2.90085 0.82277,-0.0333 1.7632,1.1553 4.55757,5.75987 17.36342,28.61158 29.35359,61.13163 34.80274,94.39296 1.63899,10.00426 3.64027,28.76202 3.00264,28.1433 -0.15148,-0.14697 -0.61134,-2.54019 -1.02193,-5.31827 -5.40204,-36.55076 -20.5837,-72.15975 -42.96682,-100.77973 -1.87168,-2.39321 -3.44901,-4.42173 -3.50517,-4.50783 -0.16032,-0.24575 -3.09283,1.35475 -3.09283,1.688 0,0.16388 0.91251,1.73563 2.0278,3.4928 6.08347,9.58471 11.91136,20.80349 16.22663,31.2366 8.90687,21.53428 14.71959,49.20235 14.57569,69.37913 l -0.0431,6.04348 -1.37921,-7.9774 c -5.75142,-33.26639 -19.30829,-63.71712 -39.76698,-89.32261 -2.39022,-2.99151 -4.43864,-5.43912 -4.55208,-5.43912 -0.21225,0 -2.18584,0.98526 -2.48724,1.24167 -0.0929,0.079 1.23581,2.38841 2.95273,5.1319 14.00376,22.37692 22.46214,45.46628 26.18045,71.46643 1.37231,9.59591 2.27098,28.87206 1.14955,24.65739 l 0,0 z"
       id="path3906"
       inkscape:connector-curvature="0" />
    <path
       style="fill:#000000;fill-opacity:1;fill-rule:nonzero;stroke:none"
       d="m 502.70734,903.92016 c -0.013,-0.29582 0.62154,-2.10275 1.41026,-4.01541 3.90466,-9.46889 8.25013,-24.42082 10.62029,-36.5424 2.90636,-14.86384 3.88852,-25.37094 3.89547,-41.67365 0.004,-12.21096 -0.47951,-19.9726 -1.84397,-29.52662 l -0.81017,-5.67277 -1.69217,-0.14283 -1.69217,-0.14286 -0.0157,13.68023 c -0.0116,10.09587 -0.24142,15.5158 -0.87712,20.68587 -2.36358,19.22246 -6.24302,34.7107 -13.01948,51.97873 -2.63485,6.71426 -11.80831,25.38261 -12.47276,25.38261 -0.21926,0 -0.0549,-0.81588 0.36559,-1.81304 13.16783,-31.23883 17.53494,-69.67254 11.92115,-104.91479 l -0.78939,-4.95566 -1.50049,-4.2e-4 -1.50049,-4.1e-4 0.15951,10.99955 c 0.24001,16.55014 -1.21116,29.71024 -4.94556,44.84931 -3.91491,15.87089 -10.40156,32.17267 -18.17746,45.68241 -1.87378,3.25548 -1.74611,2.72362 1.6758,-6.9813 3.29911,-9.35668 5.59603,-18.07969 7.20832,-27.37512 2.28031,-13.14682 2.47152,-15.57373 2.47376,-31.39661 0.002,-14.96605 -0.30546,-19.57116 -1.96976,-29.49218 -1.02664,-6.1198 -1.08313,-6.28523 -2.14687,-6.28523 -0.90053,0 -0.95773,-0.34059 -0.95773,-5.70185 0,-6.53135 -1.45044,-21.33822 -2.9175,-29.78368 -3.77792,-21.74836 -11.35599,-44.13636 -21.28127,-62.87162 -1.64331,-3.10198 -2.88887,-5.73898 -2.76789,-5.85996 0.31971,-0.31971 8.4198,9.89292 12.10111,15.25711 14.60337,21.27921 25.04378,47.07837 29.0057,71.67566 0.96628,5.99906 1.16607,6.64712 2.04705,6.64042 2.34584,-0.0178 2.36414,-0.13135 1.76158,-10.94219 -1.1272,-20.22369 -4.62811,-37.45529 -11.21538,-55.20246 -3.0292,-8.16119 -9.76167,-22.10127 -14.38229,-29.77965 -1.90741,-3.16965 -3.37896,-5.85205 -3.27012,-5.96087 0.31559,-0.3156 7.1902,8.73748 11.83982,15.59172 15.28694,22.53516 26.21779,49.77866 30.47392,75.95166 0.55806,3.4318 1.12962,6.94673 1.27013,7.81093 0.22459,1.38138 0.43732,1.57131 1.7599,1.57131 l 1.50443,0 -0.3053,-8.82347 c -1.16476,-33.66234 -11.07402,-67.08141 -28.33423,-95.55738 -2.15909,-3.56208 -3.7974,-6.60474 -3.64068,-6.76149 0.15674,-0.15672 0.71067,0.25572 1.23097,0.91652 20.6889,26.27591 34.28583,54.34279 41.57056,85.81018 1.5477,6.68549 3.83122,19.85919 3.83122,22.10238 0,1.0007 0.23598,1.34631 0.91926,1.34631 0.83075,0 0.95322,0.54366 1.27206,5.64628 0.62047,9.93049 -0.64705,31.2935 -2.67137,45.02338 -2.67711,18.15752 -7.56135,37.40812 -13.62958,53.7194 -4.15366,11.16493 -11.41777,27.50878 -11.49094,25.85395 l 0,0 z"
       id="path3908"
       inkscape:connector-curvature="0" />
    <path
       style="fill:#000000;fill-opacity:1;fill-rule:nonzero;stroke:none"
       d="m 412.77388,1006.0714 c 0.38937,-0.3533 3.10117,-2.5726 6.02622,-4.9318 6.7308,-5.42878 21.39778,-20.03934 27.40782,-27.30245 11.47146,-13.86325 20.04313,-27.04742 27.72039,-42.63706 3.65924,-7.43053 8.44918,-18.61099 8.44918,-19.72167 0,-0.25774 -0.62807,-0.79339 -1.3957,-1.19036 l -1.39568,-0.72173 -3.73104,6.87367 c -4.86064,8.95475 -13.31553,21.65134 -19.87019,29.83889 -6.51566,8.13881 -21.24275,22.90574 -29.10975,29.18853 -9.09397,7.26267 -23.8825,17.2921 -24.53513,16.63952 -0.11194,-0.11191 1.80244,-1.82085 4.25417,-3.79754 5.76153,-4.64519 18.17344,-16.75015 23.53376,-22.95175 14.44062,-16.70703 27.29089,-38.03735 34.50393,-57.27355 0.94723,-2.52616 1.85488,-4.93501 2.01696,-5.35301 0.1988,-0.51262 -0.11215,-0.94535 -0.95541,-1.32956 -0.68757,-0.31329 -1.34648,-0.56959 -1.46426,-0.56959 -0.11777,0 -1.17349,1.90369 -2.34604,4.23043 -11.94157,23.69613 -33.05636,47.98352 -55.27305,63.57806 -6.08361,4.27026 -14.11038,9.27486 -14.4043,8.98094 -0.11218,-0.11219 1.90946,-1.93347 4.49257,-4.0473 5.95558,-4.87364 17.05223,-15.93981 22.27982,-22.21866 13.16299,-15.81002 23.67568,-33.90753 30.55238,-52.59572 1.70622,-4.63686 1.88821,-5.47896 1.26852,-5.86984 -0.60508,-0.38168 -0.14215,-1.56916 2.82885,-7.25627 10.77959,-20.63433 17.50952,-40.54169 21.50368,-63.6086 1.59075,-9.18683 2.89461,-22.31097 2.89461,-29.13612 0,-2.58905 0.18914,-4.70737 0.42034,-4.70737 0.55897,0 2.30089,11.18321 3.01233,19.33913 0.89642,10.27695 0.31611,28.69018 -1.24183,39.40348 -1.9829,13.63544 -4.90607,25.15661 -9.42636,37.15217 -2.18307,5.79322 -2.32567,6.41481 -1.59789,6.96523 1.40625,1.06355 1.98223,0.67283 3.91985,-2.65913 8.97106,-15.42669 16.2037,-35.14673 20.08192,-54.75392 2.26508,-11.4517 2.90619,-18.60065 2.93514,-32.72932 0.0148,-7.23165 0.169,-12.99711 0.34265,-12.81218 0.17365,0.18497 0.76957,3.59976 1.32428,7.58846 4.58217,32.94905 0.52668,67.03305 -11.60714,97.55146 -1.03295,2.598 -1.87808,4.90189 -1.87808,5.11978 0,0.38987 2.43361,1.68649 2.65683,1.41556 0.96463,-1.17087 7.35859,-13.70928 9.85786,-19.33106 11.60923,-26.11326 17.11747,-52.14794 17.19043,-81.25053 0.0363,-14.50888 0.46346,-15.11409 1.96179,-2.77999 4.27783,35.21484 -0.57095,71.56148 -14.00523,104.98356 -1.83091,4.55496 -2.00922,5.30281 -1.35204,5.67059 0.64711,0.36214 0.4185,1.04674 -1.57453,4.71518 -19.77835,36.40492 -47.59712,67.70254 -81.3035,91.47094 -4.48197,3.1605 -6.76822,4.4627 -4.96913,2.8305 l 0,0 z"
       id="path3910"
       inkscape:connector-curvature="0" />
    <path
       style="fill:#000000;fill-opacity:1;fill-rule:nonzero;stroke:none"
       d="m 280.28357,1050.5618 c 0,-0.1293 1.9037,-0.4963 4.23042,-0.8155 28.09874,-3.854 56.28425,-13.8679 81.34523,-28.9001 8.90142,-5.3393 25.14088,-16.9809 25.14088,-18.0227 0,-0.7567 -1.11525,-2.87843 -1.51298,-2.87843 -0.21493,0 -1.86614,0.95083 -3.66934,2.11293 -28.73747,18.5206 -64.55127,29.7849 -97.07334,30.532 l -9.66957,0.2221 7.20713,-1.1972 c 29.94189,-4.9736 57.90095,-16.536 82.54938,-34.13818 7.202,-5.14323 12.98262,-9.92973 12.98262,-10.75004 0,-0.33977 -0.29202,-1.01712 -0.64892,-1.50521 -0.6141,-0.83985 -0.80212,-0.78414 -3.50521,1.03868 -6.68707,4.50942 -18.3381,10.76921 -27.03021,14.52265 -15.56103,6.7196 -33.03768,11.3748 -50.38858,13.4221 -6.86214,0.8096 -21.8005,1.507 -21.32726,0.9955 0.17732,-0.1916 3.37233,-0.8728 7.10003,-1.5139 26.71385,-4.5944 54.22442,-16.44589 75.84346,-32.67332 7.77662,-5.83721 11.33121,-9.07227 11.02575,-10.03466 -0.20941,-0.65981 0.81989,-1.51543 4.69397,-3.90185 26.99402,-16.62831 51.51095,-40.98507 68.28777,-67.84162 1.79449,-2.87262 3.35415,-5.13151 3.4659,-5.01975 0.26337,0.26335 -3.43694,9.79529 -6.30133,16.23218 -4.82185,10.83567 -13.09217,24.27796 -22.19386,36.07315 -5.48246,7.1049 -20.952,22.84632 -27.29716,27.77691 -2.19378,1.7047 -3.98178,3.33194 -3.97333,3.61606 0.009,0.28413 0.32405,0.92418 0.70129,1.42235 0.66058,0.87231 0.78938,0.84778 3.48985,-0.66487 1.54216,-0.86386 5.5235,-3.36319 8.84741,-5.55412 24.10527,-15.88872 44.01722,-37.5259 58.7352,-63.82416 3.82579,-6.83594 3.73692,-5.66989 -0.28832,3.78309 -7.51647,17.6518 -17.62458,34.10896 -30.34159,49.39952 -5.37058,6.45744 -18.81919,19.65276 -25.56704,25.08552 -3.25742,2.62261 -5.91568,5.01331 -5.90723,5.31272 0.009,0.29942 0.32173,0.94878 0.69616,1.44314 0.65098,0.85941 0.81433,0.81804 3.73158,-0.94495 15.84083,-9.57276 26.17753,-17.68047 39.34125,-30.85782 14.58278,-14.59787 25.48977,-29.16367 34.50267,-46.07673 5.04813,-9.47304 3.40332,-3.46366 -2.60994,9.53551 -13.91112,30.07235 -36.20852,58.17754 -61.56298,77.5983 -3.46971,2.6577 -4.37316,3.5947 -4.2077,4.3639 0.16581,0.7709 -0.42936,1.3826 -2.79306,2.8706 -6.92206,4.3579 -14.23538,8.377 -23.79334,13.076 -23.32569,11.4677 -47.24509,19.203 -72.52175,23.453 -11.02529,1.8538 -29.73391,3.8845 -29.73391,3.2272 z"
       id="path3912"
       inkscape:connector-curvature="0" />
    <path
       style="fill:#ff5252;fill-opacity:1;fill-rule:nonzero;stroke:#ff5252;stroke-width:1.58880973;stroke-linecap:round;stroke-linejoin:round;stroke-miterlimit:4;stroke-opacity:1;stroke-dasharray:none"
       d="m 270.16166,785.75008 c -0.43988,-0.46676 -0.61188,-10.85386 -0.86879,-52.46418 -0.17619,-28.5352 -0.33363,-61.75766 -0.34989,-73.82769 l -0.0295,-21.9455 -1.31444,0.23151 c -1.13208,0.1994 -1.27347,0.14122 -1.01914,-0.41934 0.16241,-0.35797 1.04849,-2.4898 1.96907,-4.7374 0.92058,-2.24759 1.74897,-4.15276 1.84087,-4.23369 0.21498,-0.18932 1.19602,1.85474 2.95632,6.15968 l 1.4028,3.43065 -1.27315,-0.22424 -1.27315,-0.22424 0.25881,25.86788 c 0.64265,64.23292 0.78017,121.36937 0.29405,122.16929 -0.57011,0.93813 -1.81612,1.0425 -2.59381,0.21727 l 0,0 z"
       id="path5152"
       inkscape:connector-curvature="0" />
    <path
       style="fill:#ff5252;fill-opacity:1;fill-rule:nonzero;stroke:#ff5252;stroke-width:2.3262291;stroke-linecap:round;stroke-linejoin:round;stroke-miterlimit:4;stroke-opacity:1;stroke-dasharray:none"
       d="m 270.10877,783.49104 c -0.11729,-0.46138 3.14794,-7.90808 16.49228,-37.6125 9.15117,-20.37049 19.83468,-44.07307 23.74111,-52.67243 l 7.10262,-15.63518 -0.87814,-0.22068 c -0.75632,-0.19005 -0.82383,-0.27294 -0.48656,-0.5975 0.21537,-0.20727 1.44841,-1.46537 2.7401,-2.79579 1.29169,-1.33042 2.41594,-2.44405 2.49834,-2.47471 0.19277,-0.0717 0.12888,1.67148 -0.19253,5.25315 l -0.25612,2.85426 -0.70505,-0.53308 -0.70504,-0.53309 -8.23525,18.49541 c -20.44902,45.92623 -38.90407,86.65119 -39.4606,87.0782 -0.65269,0.50079 -1.44778,0.20966 -1.65513,-0.60605 l 0,0 z"
       id="path5152-3"
       inkscape:connector-curvature="0" />
    <g
       id="g5176">
      <path
         transform="translate(-15.660691,511.13112)"
         d="m 331.83736,40.935452 a 18.623526,18.623526 0 1 1 -37.24705,0 18.623526,18.623526 0 1 1 37.24705,0 z"
         sodipodi:ry="18.623526"
         sodipodi:rx="18.623526"
         sodipodi:cy="40.935452"
         sodipodi:cx="313.21384"
         id="path3004"
         style="fill:#ff5252;fill-opacity:1;fill-rule:nonzero;stroke:none"
         sodipodi:type="arc" />
      <text
         sodipodi:linespacing="125%"
         id="text5172"
         y="555.02942"
         x="282.73895"
         style="font-size:40px;font-style:normal;font-weight:normal;line-height:125%;letter-spacing:0px;word-spacing:0px;fill:#ffffff;fill-opacity:1;stroke:none;font-family:Sans"
         xml:space="preserve"><tspan
           style="font-size:10px;fill:#ffffff"
           y="555.02942"
           x="282.73895"
           id="tspan5174"
           sodipodi:role="line">Finger</tspan></text>
    </g>
    <path
       style="fill:#ff5252;fill-opacity:1;fill-rule:nonzero;stroke:#ff5252;stroke-width:1.05815482;stroke-linecap:round;stroke-linejoin:round;stroke-miterlimit:4;stroke-opacity:1;stroke-dasharray:none"
       d=""
       id="path5199"
       inkscape:connector-curvature="0"
       transform="translate(0,520.86614)" />
    <path
       style="fill:#b3b3b3;fill-opacity:1;fill-rule:nonzero;stroke:none;stroke-width:1.05815481999999994;stroke-linecap:round;stroke-linejoin:round;stroke-miterlimit:4;stroke-opacity:1;stroke-dasharray:none"
       d="m 274.02475,236.79591 -0.0345,-12.54693 8.67687,-77.75364 c 4.77228,-42.7645 8.67687,-77.854698 8.67687,-77.978216 0,-0.123519 -0.57111,-0.110358 -1.26912,0.02925 l -1.26913,0.253824 1.72035,-3.481196 c 2.85596,-5.779155 3.55629,-7.078925 3.81416,-7.078925 0.13558,0 0.78505,2.333231 1.44327,5.184958 0.65821,2.851728 1.28466,5.429348 1.39211,5.728044 0.15637,0.434729 -0.0262,0.442123 -0.91526,0.03706 -0.61083,-0.278314 -1.17783,-0.427468 -1.26,-0.331454 -0.0822,0.09601 -4.59033,40.172825 -10.01814,89.059575 -5.42781,48.88675 -10.10593,89.45641 -10.39583,90.15479 -0.4383,1.05587 -0.53291,-0.84395 -0.56162,-11.27714 z"
       id="path5201"
       inkscape:connector-curvature="0"
       transform="translate(0,520.86614)" />
    <text
       xml:space="preserve"
       style="font-size:40px;font-style:normal;font-weight:normal;line-height:125%;letter-spacing:0px;word-spacing:0px;fill:#000000;fill-opacity:1;stroke:none;font-family:Sans"
       x="293.60489"
       y="616.59393"
       id="text5203"
       sodipodi:linespacing="125%"><tspan
         sodipodi:role="line"
         id="tspan5205"
         x="293.60489"
         y="616.59393"
         style="font-size:14px;fill:#999999">r=1+2</tspan></text>
    <text
       xml:space="preserve"
       style="font-size:40px;font-style:normal;font-weight:normal;line-height:125%;letter-spacing:0px;word-spacing:0px;fill:#ff5252;fill-opacity:1;stroke:none;font-family:Sans"
       x="252.60193"
       y="686.62811"
       id="text5207"
       sodipodi:linespacing="125%"><tspan
         sodipodi:role="line"
         id="tspan5209"
         x="252.60193"
         y="686.62811"
         style="font-size:14px;fill:#ff5252;fill-opacity:1">1</tspan></text>
    <text
       xml:space="preserve"
       style="font-size:40px;font-style:normal;font-weight:normal;line-height:125%;letter-spacing:0px;word-spacing:0px;fill:#ff5252;fill-opacity:1;stroke:none;font-family:Sans"
       x="311.17575"
       y="714.47723"
       id="text5207-7"
       sodipodi:linespacing="125%"><tspan
         sodipodi:role="line"
         id="tspan5209-5"
         x="311.17575"
         y="714.47723"
         style="font-size:14px;fill:#ff5252;fill-opacity:1">2</tspan></text>
  </g>
</svg>
